<mxfile host="www.draw.io" modified="2020-03-10T09:04:33.745Z" agent="Mozilla/5.0 (Windows NT 10.0; WOW64) AppleWebKit/537.36 (KHTML, like Gecko) Chrome/63.0.3239.132 Safari/537.36" etag="SmThZ7481G6AieU2mxTH" version="12.8.2" type="github" pages="2">
  <diagram id="P37CzVAU5h4CO-gfsLlj" name="Page-1">
    <mxGraphModel dx="702" dy="347" grid="1" gridSize="10" guides="1" tooltips="1" connect="1" arrows="1" fold="1" page="1" pageScale="1" pageWidth="827" pageHeight="1169" math="0" shadow="0">
      <root>
        <mxCell id="0" />
        <mxCell id="1" parent="0" />
        <mxCell id="CfzRknbYk43TgQ5tsu0P-1" value="bankcom.com" style="ellipse;shape=cloud;whiteSpace=wrap;html=1;" parent="1" vertex="1">
          <mxGeometry x="204" y="360" width="120" height="80" as="geometry" />
        </mxCell>
        <mxCell id="CfzRknbYk43TgQ5tsu0P-2" value="butel.com" style="ellipse;shape=cloud;whiteSpace=wrap;html=1;" parent="1" vertex="1">
          <mxGeometry x="565" y="274" width="120" height="80" as="geometry" />
        </mxCell>
        <mxCell id="CfzRknbYk43TgQ5tsu0P-3" value="" style="whiteSpace=wrap;html=1;aspect=fixed;" parent="1" vertex="1">
          <mxGeometry x="204" y="177" width="110" height="110" as="geometry" />
        </mxCell>
        <mxCell id="CfzRknbYk43TgQ5tsu0P-5" value="so库" style="whiteSpace=wrap;html=1;aspect=fixed;" parent="1" vertex="1">
          <mxGeometry x="264" y="237" width="50" height="50" as="geometry" />
        </mxCell>
        <mxCell id="CfzRknbYk43TgQ5tsu0P-6" value="http接口" style="text;html=1;align=center;verticalAlign=middle;resizable=0;points=[];;autosize=1;" parent="1" vertex="1">
          <mxGeometry x="223" y="194" width="60" height="20" as="geometry" />
        </mxCell>
        <mxCell id="CfzRknbYk43TgQ5tsu0P-10" style="edgeStyle=orthogonalEdgeStyle;rounded=0;orthogonalLoop=1;jettySize=auto;html=1;exitX=0.875;exitY=0.5;exitDx=0;exitDy=0;exitPerimeter=0;" parent="1" source="CfzRknbYk43TgQ5tsu0P-7" target="CfzRknbYk43TgQ5tsu0P-2" edge="1">
          <mxGeometry relative="1" as="geometry">
            <mxPoint x="570" y="314" as="targetPoint" />
          </mxGeometry>
        </mxCell>
        <mxCell id="CfzRknbYk43TgQ5tsu0P-7" value="V114.com" style="ellipse;shape=cloud;whiteSpace=wrap;html=1;" parent="1" vertex="1">
          <mxGeometry x="390" y="274" width="120" height="80" as="geometry" />
        </mxCell>
        <mxCell id="CfzRknbYk43TgQ5tsu0P-8" value="" style="endArrow=classic;html=1;entryX=0.25;entryY=0.25;entryDx=0;entryDy=0;entryPerimeter=0;exitX=1;exitY=0.5;exitDx=0;exitDy=0;" parent="1" source="CfzRknbYk43TgQ5tsu0P-5" target="CfzRknbYk43TgQ5tsu0P-7" edge="1">
          <mxGeometry width="50" height="50" relative="1" as="geometry">
            <mxPoint x="310" y="240" as="sourcePoint" />
            <mxPoint x="290" y="150" as="targetPoint" />
          </mxGeometry>
        </mxCell>
        <mxCell id="CfzRknbYk43TgQ5tsu0P-9" value="" style="endArrow=classic;html=1;entryX=0.31;entryY=0.8;entryDx=0;entryDy=0;entryPerimeter=0;" parent="1" target="CfzRknbYk43TgQ5tsu0P-7" edge="1">
          <mxGeometry width="50" height="50" relative="1" as="geometry">
            <mxPoint x="320" y="380" as="sourcePoint" />
            <mxPoint x="280" y="360" as="targetPoint" />
          </mxGeometry>
        </mxCell>
        <mxCell id="CfzRknbYk43TgQ5tsu0P-11" value="http" style="text;html=1;align=center;verticalAlign=middle;resizable=0;points=[];;autosize=1;" parent="1" vertex="1">
          <mxGeometry x="350" y="380" width="40" height="20" as="geometry" />
        </mxCell>
        <mxCell id="CfzRknbYk43TgQ5tsu0P-12" value="http" style="text;html=1;align=center;verticalAlign=middle;resizable=0;points=[];;autosize=1;" parent="1" vertex="1">
          <mxGeometry x="517.5" y="320" width="40" height="20" as="geometry" />
        </mxCell>
        <mxCell id="KobEUwnLILVNURIM-OFg-1" style="edgeStyle=orthogonalEdgeStyle;rounded=0;orthogonalLoop=1;jettySize=auto;html=1;exitX=0.5;exitY=1;exitDx=0;exitDy=0;entryX=0.4;entryY=0.1;entryDx=0;entryDy=0;entryPerimeter=0;" parent="1" source="CfzRknbYk43TgQ5tsu0P-13" target="CfzRknbYk43TgQ5tsu0P-7" edge="1">
          <mxGeometry relative="1" as="geometry" />
        </mxCell>
        <mxCell id="CfzRknbYk43TgQ5tsu0P-13" value="及直播上传" style="ellipse;whiteSpace=wrap;html=1;aspect=fixed;" parent="1" vertex="1">
          <mxGeometry x="370" y="137" width="80" height="80" as="geometry" />
        </mxCell>
        <mxCell id="CfzRknbYk43TgQ5tsu0P-14" value="muipAPP" style="text;html=1;align=center;verticalAlign=middle;resizable=0;points=[];;autosize=1;" parent="1" vertex="1">
          <mxGeometry x="144" y="226" width="70" height="20" as="geometry" />
        </mxCell>
        <mxCell id="KobEUwnLILVNURIM-OFg-3" style="edgeStyle=orthogonalEdgeStyle;rounded=0;orthogonalLoop=1;jettySize=auto;html=1;exitX=0.5;exitY=1;exitDx=0;exitDy=0;entryX=0.625;entryY=0.2;entryDx=0;entryDy=0;entryPerimeter=0;" parent="1" source="KobEUwnLILVNURIM-OFg-2" target="CfzRknbYk43TgQ5tsu0P-7" edge="1">
          <mxGeometry relative="1" as="geometry" />
        </mxCell>
        <mxCell id="KobEUwnLILVNURIM-OFg-2" value="导播机" style="ellipse;whiteSpace=wrap;html=1;" parent="1" vertex="1">
          <mxGeometry x="490" y="146" width="120" height="80" as="geometry" />
        </mxCell>
      </root>
    </mxGraphModel>
  </diagram>
  <diagram id="nmY8WQF_8GF6eg9v3HMz" name="Page-2">
    <mxGraphModel dx="702" dy="347" grid="1" gridSize="10" guides="1" tooltips="1" connect="1" arrows="1" fold="1" page="1" pageScale="1" pageWidth="827" pageHeight="1169" math="0" shadow="0">
      <root>
        <mxCell id="HfcUNCpFn4Km_UseeY_x-0" />
        <mxCell id="HfcUNCpFn4Km_UseeY_x-1" parent="HfcUNCpFn4Km_UseeY_x-0" />
        <mxCell id="HfcUNCpFn4Km_UseeY_x-2" value="IExector" style="swimlane;fontStyle=1;align=center;verticalAlign=top;childLayout=stackLayout;horizontal=1;startSize=26;horizontalStack=0;resizeParent=1;resizeParentMax=0;resizeLast=0;collapsible=1;marginBottom=0;" vertex="1" parent="HfcUNCpFn4Km_UseeY_x-1">
          <mxGeometry x="100" y="70" width="160" height="86" as="geometry" />
        </mxCell>
        <mxCell id="HfcUNCpFn4Km_UseeY_x-3" value="+ field: type" style="text;strokeColor=none;fillColor=none;align=left;verticalAlign=top;spacingLeft=4;spacingRight=4;overflow=hidden;rotatable=0;points=[[0,0.5],[1,0.5]];portConstraint=eastwest;" vertex="1" parent="HfcUNCpFn4Km_UseeY_x-2">
          <mxGeometry y="26" width="160" height="26" as="geometry" />
        </mxCell>
        <mxCell id="HfcUNCpFn4Km_UseeY_x-4" value="" style="line;strokeWidth=1;fillColor=none;align=left;verticalAlign=middle;spacingTop=-1;spacingLeft=3;spacingRight=3;rotatable=0;labelPosition=right;points=[];portConstraint=eastwest;" vertex="1" parent="HfcUNCpFn4Km_UseeY_x-2">
          <mxGeometry y="52" width="160" height="8" as="geometry" />
        </mxCell>
        <mxCell id="HfcUNCpFn4Km_UseeY_x-5" value="+ doing: void" style="text;strokeColor=none;fillColor=none;align=left;verticalAlign=top;spacingLeft=4;spacingRight=4;overflow=hidden;rotatable=0;points=[[0,0.5],[1,0.5]];portConstraint=eastwest;" vertex="1" parent="HfcUNCpFn4Km_UseeY_x-2">
          <mxGeometry y="60" width="160" height="26" as="geometry" />
        </mxCell>
      </root>
    </mxGraphModel>
  </diagram>
</mxfile>
